<?xml version="1.0" encoding="utf-8"?>
<svg viewBox="0 0 500 500" width="500" height="500" xmlns="http://www.w3.org/2000/svg">
  <g transform="matrix(14.058057, 0, 0, 14.058057, 0.538658, 1.632795)" style="">
    <path d="M22.681,20.423h3.556v0.646c0,2.733-0.615,4.498-1.846,5.293c-0.913,0.592-2.869,0.89-5.868,0.89 c-3.5,0-5.676-0.604-6.523-1.808c-0.493-0.699-0.843-2.112-1.053-4.237H9.264l0.34-2.299h1.178 c-0.028-0.685-0.045-1.448-0.055-2.297H9.264l0.34-2.297h1.178c0.165-2.272,0.719-3.809,1.669-4.609 c1.139-0.965,3.45-1.451,6.932-1.451c2.673,0,4.449,0.398,5.334,1.191c0.812,0.729,1.258,2.314,1.341,4.759l0.013,0.424h-3.554 v-0.479c0-1.313-0.321-2.146-0.958-2.502c-0.43-0.236-1.392-0.355-2.887-0.355c-2.005,0-3.231,0.27-3.678,0.809 c-0.282,0.336-0.474,1.075-0.574,2.215h6.441l-0.34,2.299h-6.196v0.271c0,0.686,0.007,1.358,0.027,2.023h5.824l-0.341,2.299h-5.36 c0.099,1.012,0.251,1.686,0.452,2.023c0.392,0.655,1.581,0.982,3.571,0.982c1.77,0,2.912-0.183,3.434-0.546 c0.555-0.394,0.813-1.194,0.776-2.408L22.681,20.423z M35.499,17.969C35.38,27.636,27.419,35.5,17.753,35.5l-0.222-0.001 c-4.741-0.06-9.175-1.96-12.486-5.354c-3.311-3.394-5.103-7.873-5.044-12.612C0.122,7.863,8.083,0,17.748,0l0.222,0.001 c4.741,0.06,9.175,1.96,12.486,5.354C33.767,8.749,35.558,13.229,35.499,17.969z M6.824,29.07c1.334,1.289,2.854,2.322,4.506,3.061 l0.47-1.154c-1.521-0.688-2.897-1.634-4.085-2.773L6.824,29.07z M12.257,32.5c1.523,0.566,3.135,0.896,4.798,0.969l0.015-1.24 c-1.522-0.069-2.979-0.375-4.343-0.881L12.257,32.5z M18.058,33.484c1.877-0.036,3.674-0.408,5.341-1.058l-0.479-1.142 c-1.515,0.583-3.145,0.92-4.845,0.957L18.058,33.484z M24.316,32.035c1.494-0.692,2.859-1.611,4.062-2.715l-0.863-0.885 c-1.09,0.996-2.326,1.825-3.678,2.459L24.316,32.035z M31.26,17.917c0.093-7.449-5.894-13.584-13.343-13.676L17.748,4.24 c-7.357,0-13.417,5.984-13.507,13.343c-0.092,7.449,5.894,13.585,13.344,13.677l0.169,0.002 C25.109,31.262,31.169,25.273,31.26,17.917z M4.167,12.711l-1.146-0.468c-0.566,1.499-0.907,3.103-0.986,4.774l1.239,0.016 C3.35,15.521,3.659,14.068,4.167,12.711z M2.019,18.02c0.03,1.853,0.374,3.65,1.016,5.338l1.153-0.482 c-0.573-1.514-0.896-3.141-0.93-4.84L2.019,18.02z M28.638,6.393c-1.332-1.279-2.847-2.304-4.492-3.035l-0.472,1.154 c1.516,0.68,2.886,1.619,4.071,2.75L28.638,6.393z M23.215,2.99c-1.515-0.561-3.117-0.887-4.771-0.959l-0.015,1.24 c1.512,0.071,2.96,0.373,4.316,0.871L23.215,2.99z M17.442,2.016C15.577,2.052,13.79,2.42,12.13,3.061l0.481,1.144 c1.505-0.576,3.125-0.909,4.816-0.947L17.442,2.016z M11.209,3.451c-1.488,0.688-2.85,1.598-4.048,2.691l0.864,0.885 c1.087-0.985,2.319-1.81,3.664-2.435L11.209,3.451z M31.357,22.723l1.146,0.469c0.561-1.504,0.896-3.108,0.965-4.784l-1.238-0.017 C32.164,19.906,31.86,21.359,31.357,22.723z M33.479,17.404c-0.039-1.848-0.387-3.646-1.036-5.329L31.29,12.56 c0.58,1.506,0.909,3.133,0.951,4.831L33.479,17.404z M29.336,7.105l-0.893,0.869c0.993,1.086,1.819,2.319,2.448,3.668l1.149-0.484 C31.365,9.689,30.459,8.325,29.336,7.105z M3.396,11.314l1.148,0.47c0.688-1.511,1.628-2.878,2.765-4.062L6.443,6.836 C5.188,8.139,4.148,9.648,3.396,11.314z M6.126,28.354l0.891-0.869c-0.992-1.094-1.816-2.334-2.441-3.688l-1.15,0.481 C4.103,25.753,5.005,27.126,6.126,28.354z M32.138,24.12l-1.146-0.468c-0.684,1.518-1.624,2.894-2.76,4.084l0.864,0.886 C30.351,27.312,31.389,25.796,32.138,24.12z"/>
  </g>
  <g transform="matrix(13.891958, 0, 0, 13.891958, 1.429326, 5.218937)" style=""/>
  <g transform="matrix(13.891958, 0, 0, 13.891958, 1.429326, 5.218937)" style=""/>
  <g transform="matrix(13.891958, 0, 0, 13.891958, 1.429326, 5.218937)" style=""/>
  <g transform="matrix(13.891958, 0, 0, 13.891958, 1.429326, 5.218937)" style=""/>
  <g transform="matrix(13.891958, 0, 0, 13.891958, 1.429326, 5.218937)" style=""/>
  <g transform="matrix(13.891958, 0, 0, 13.891958, 1.429326, 5.218937)" style=""/>
  <g transform="matrix(13.891958, 0, 0, 13.891958, 1.429326, 5.218937)" style=""/>
  <g transform="matrix(13.891958, 0, 0, 13.891958, 1.429326, 5.218937)" style=""/>
  <g transform="matrix(13.891958, 0, 0, 13.891958, 1.429326, 5.218937)" style=""/>
  <g transform="matrix(13.891958, 0, 0, 13.891958, 1.429326, 5.218937)" style=""/>
  <g transform="matrix(13.891958, 0, 0, 13.891958, 1.429326, 5.218937)" style=""/>
  <g transform="matrix(13.891958, 0, 0, 13.891958, 1.429326, 5.218937)" style=""/>
  <g transform="matrix(13.891958, 0, 0, 13.891958, 1.429326, 5.218937)" style=""/>
  <g transform="matrix(13.891958, 0, 0, 13.891958, 1.429326, 5.218937)" style=""/>
  <g transform="matrix(13.891958, 0, 0, 13.891958, 1.429326, 5.218937)" style=""/>
</svg>