<?xml version="1.0" standalone="no"?>
<!DOCTYPE svg PUBLIC "-//W3C//DTD SVG 20010904//EN"
 "http://www.w3.org/TR/2001/REC-SVG-20010904/DTD/svg10.dtd">
<svg version="1.0" xmlns="http://www.w3.org/2000/svg"
 width="1298.000000pt" height="1210.000000pt" viewBox="0 0 1298.000000 1210.000000"
 preserveAspectRatio="xMidYMid meet">

<g transform="translate(0.000000,1210.000000) scale(0.100000,-0.100000)"
fill="#000000" stroke="none">
<path d="M4280 12091 c-404 -49 -589 -119 -787 -296 -61 -53 -168 -194 -201
-263 -15 -31 -40 -75 -55 -97 -15 -22 -27 -46 -27 -55 0 -8 -7 -28 -15 -44 -8
-15 -15 -34 -15 -40 0 -7 -15 -42 -34 -79 -19 -36 -37 -81 -41 -99 -4 -18 -22
-64 -40 -103 -18 -38 -42 -99 -54 -135 -12 -36 -35 -92 -51 -125 -16 -33 -37
-82 -46 -110 -8 -27 -29 -81 -46 -120 -42 -97 -46 -107 -53 -135 -7 -26 -20
-58 -65 -155 -15 -33 -31 -76 -35 -95 -4 -19 -21 -62 -38 -95 -16 -33 -42 -98
-58 -145 -15 -47 -39 -106 -53 -132 -14 -26 -30 -67 -36 -90 -6 -24 -22 -65
-34 -93 -24 -50 -53 -122 -76 -183 -21 -54 -30 -56 -329 -82 -68 -6 -129 -14
-135 -18 -12 -7 -108 -35 -201 -58 -81 -20 -286 -122 -365 -182 -85 -64 -169
-152 -229 -239 -50 -72 -61 -94 -106 -203 -44 -107 -53 -132 -71 -195 -9 -33
-32 -96 -50 -140 -17 -44 -45 -120 -62 -170 -17 -49 -44 -128 -61 -175 -16
-47 -30 -91 -31 -99 0 -8 -13 -41 -29 -75 -15 -34 -41 -104 -56 -156 -15 -52
-32 -102 -36 -110 -23 -42 -48 -110 -54 -147 -4 -24 -11 -45 -16 -49 -5 -3 -9
-13 -9 -22 0 -10 -9 -35 -20 -57 -24 -47 -60 -149 -60 -171 0 -8 -18 -57 -40
-109 -22 -52 -40 -103 -40 -114 0 -11 -4 -22 -9 -25 -4 -3 -11 -21 -14 -40 -3
-19 -20 -65 -37 -102 -34 -75 -55 -162 -71 -297 -16 -142 15 -332 69 -422 68
-114 89 -146 137 -202 59 -69 181 -180 262 -237 31 -23 75 -58 97 -78 39 -35
41 -40 40 -90 -1 -38 -11 -75 -34 -124 -34 -72 -53 -125 -75 -209 -7 -27 -26
-84 -43 -125 -17 -41 -38 -102 -47 -135 -9 -33 -31 -98 -49 -145 -19 -47 -37
-101 -41 -120 -8 -40 -41 -145 -55 -175 -24 -52 -38 -96 -45 -136 -4 -24 -22
-82 -40 -129 -18 -47 -45 -130 -59 -185 -14 -55 -37 -129 -50 -164 -14 -35
-30 -91 -37 -125 -6 -33 -14 -70 -19 -81 -25 -65 -75 -229 -86 -285 -15 -76
-46 -190 -57 -207 -7 -11 -12 -31 -47 -208 -10 -49 -28 -126 -40 -170 -22 -81
-41 -194 -59 -360 -13 -112 -13 -428 -1 -515 5 -36 14 -103 21 -150 11 -77
106 -377 129 -405 4 -5 25 -44 46 -85 92 -184 261 -387 444 -535 82 -66 250
-182 278 -192 9 -3 46 -23 82 -44 36 -21 83 -45 105 -52 22 -8 74 -30 115 -49
41 -20 97 -41 124 -47 27 -7 75 -23 107 -36 68 -27 192 -56 489 -112 158 -30
264 -33 1090 -25 960 8 2906 9 4515 2 844 -4 1126 -2 1175 7 36 7 130 19 210
27 162 18 402 50 470 64 38 8 189 51 330 93 19 6 53 19 75 29 22 10 75 33 117
50 43 17 88 40 100 49 13 10 46 30 75 44 96 48 239 164 341 278 109 123 138
161 177 230 19 33 44 74 55 89 11 15 20 31 20 35 0 6 23 59 66 152 13 28 33
89 43 135 11 45 32 114 46 152 14 38 37 112 50 165 14 53 34 121 46 151 11 30
32 98 45 150 14 52 40 138 58 190 18 52 37 113 40 135 9 46 39 144 55 173 6
11 22 67 36 124 15 56 39 139 55 183 17 44 34 98 39 120 30 124 43 168 65 218
13 31 30 82 36 114 6 32 30 112 52 178 21 65 46 146 53 180 8 33 32 110 53
172 22 61 43 128 47 149 8 47 44 155 56 170 5 6 15 39 23 75 21 96 42 167 70
238 14 35 30 88 35 118 6 30 31 114 56 187 25 73 45 140 45 149 0 18 45 163
59 187 4 8 20 65 35 125 15 61 31 119 36 130 28 61 43 106 55 160 17 75 37
142 68 225 13 36 29 93 35 126 7 33 25 94 41 136 17 42 33 93 37 114 3 22 10
44 14 49 4 6 10 28 13 51 6 35 23 87 57 169 5 11 21 70 36 130 15 61 30 115
34 120 9 13 46 129 55 175 10 49 35 128 55 175 10 22 28 83 40 135 12 52 28
109 35 125 15 34 47 138 65 205 6 25 25 86 42 135 17 50 38 124 48 165 20 82
35 129 55 175 8 17 21 55 28 85 43 161 70 257 78 272 5 9 27 111 49 226 53
278 55 405 10 580 -17 64 -39 133 -49 152 -85 166 -144 251 -263 380 -107 116
-144 132 -190 83 -36 -39 -108 -153 -115 -183 -3 -14 -19 -52 -36 -85 -17 -33
-36 -85 -43 -115 -28 -119 -35 -146 -44 -165 -14 -29 -40 -128 -56 -210 -7
-38 -26 -110 -42 -160 -48 -145 -60 -188 -68 -230 -3 -22 -10 -44 -14 -50 -3
-5 -13 -30 -20 -55 -7 -25 -17 -49 -21 -55 -6 -10 -12 -32 -44 -172 -8 -35
-19 -71 -24 -80 -16 -30 -49 -136 -56 -178 -8 -49 -31 -129 -50 -170 -20 -45
-42 -123 -54 -190 -6 -34 -25 -96 -41 -138 -16 -43 -33 -97 -36 -120 -4 -23
-10 -46 -14 -52 -4 -5 -10 -29 -14 -53 -3 -24 -11 -51 -16 -60 -15 -29 -60
-171 -60 -192 0 -10 -4 -29 -9 -42 -16 -41 -89 -282 -96 -318 -8 -37 -40 -141
-54 -175 -15 -34 -39 -118 -46 -165 -4 -25 -22 -83 -40 -130 -18 -47 -35 -103
-39 -125 -4 -22 -12 -56 -18 -75 -24 -81 -60 -186 -67 -200 -5 -9 -12 -36 -15
-60 -9 -54 -45 -181 -57 -196 -7 -9 -19 -49 -50 -179 -13 -55 -39 -134 -55
-170 -7 -16 -25 -79 -39 -139 -15 -60 -31 -116 -36 -125 -14 -25 -47 -132 -54
-176 -3 -22 -10 -49 -15 -60 -5 -11 -14 -36 -19 -55 -5 -19 -21 -66 -35 -105
-14 -38 -31 -96 -37 -129 -5 -32 -14 -66 -18 -75 -24 -48 -43 -100 -57 -155
-36 -143 -42 -164 -67 -226 -15 -36 -31 -90 -38 -120 -6 -30 -22 -86 -36 -125
-44 -126 -61 -179 -68 -215 -8 -42 -45 -151 -56 -165 -4 -6 -20 -56 -34 -110
-14 -55 -38 -134 -55 -175 -16 -41 -38 -113 -50 -159 -11 -46 -32 -109 -45
-141 -13 -32 -34 -93 -45 -136 -12 -43 -34 -108 -49 -144 -16 -36 -37 -96 -47
-135 -10 -38 -31 -99 -47 -135 -16 -36 -38 -94 -49 -130 -11 -36 -34 -90 -50
-120 -17 -30 -36 -72 -44 -93 -46 -130 -232 -362 -362 -453 -79 -55 -97 -64
-226 -104 -163 -50 -204 -54 -646 -49 -658 7 -1371 4 -1905 -6 -597 -12 -3072
-13 -3610 -2 -1048 21 -1292 28 -1310 36 -11 5 -58 13 -105 19 -175 22 -264
43 -360 87 -52 23 -105 46 -118 50 -12 3 -41 21 -65 39 -23 17 -58 41 -77 53
-19 12 -61 51 -93 87 -150 169 -190 361 -103 492 20 29 47 61 61 70 34 22 149
64 205 74 64 12 291 10 600 -4 203 -10 931 -13 3135 -12 2839 2 3145 5 3300
35 28 5 97 15 155 21 103 10 127 17 299 79 204 74 406 265 534 506 51 97 110
226 123 274 9 31 29 83 44 116 16 33 32 78 36 100 3 22 10 45 14 50 4 6 10 24
14 40 6 26 30 94 57 160 4 11 11 36 14 55 9 48 46 173 55 185 5 6 20 60 35
120 30 122 64 235 75 250 5 6 13 33 19 60 23 115 42 189 50 199 8 11 41 115
61 196 6 25 16 63 21 85 6 21 16 53 24 70 18 41 52 161 60 212 4 24 11 45 16
49 5 3 9 13 9 22 0 9 7 30 15 45 8 16 28 81 44 145 17 64 41 145 55 179 13 34
29 86 35 115 7 29 32 112 56 183 24 72 46 146 50 165 8 46 45 162 56 175 4 6
12 29 18 50 48 190 66 247 91 300 5 11 14 43 19 70 12 61 37 153 50 180 17 36
51 145 51 164 0 21 34 131 49 160 11 20 33 96 57 196 8 33 16 65 18 70 6 19
26 70 36 90 6 11 16 49 24 85 17 75 36 139 67 225 11 33 27 85 34 115 23 93
46 174 54 185 12 16 38 104 52 175 6 36 15 70 19 75 4 6 10 24 14 40 4 17 14
44 21 60 14 30 23 62 50 182 8 35 19 71 25 80 15 27 50 135 50 154 0 19 15 71
71 241 22 64 39 125 39 136 0 10 15 61 33 113 19 52 44 135 56 184 12 50 36
126 52 171 16 44 33 100 38 125 19 87 32 135 61 219 17 47 36 119 44 160 7 41
23 109 35 150 37 127 52 191 67 290 8 52 18 102 21 110 4 8 12 42 19 75 7 33
17 78 23 100 16 63 29 395 21 556 l-7 147 -51 116 c-73 168 -167 270 -327 356
-44 23 -84 46 -90 50 -10 8 -128 44 -180 56 -16 4 -34 10 -40 14 -9 7 -34 14
-147 40 -91 20 -400 44 -806 62 -299 13 -1081 16 -1252 4 -47 -3 -570 -11
-1163 -17 -845 -10 -1207 -10 -1679 0 -337 7 -610 16 -620 22 -22 12 -938 20
-1028 10z m3830 -1422 c303 -21 820 -118 820 -153 0 -13 -128 -260 -194 -376
-24 -41 -69 -120 -100 -176 -30 -56 -61 -106 -68 -111 -9 -8 -60 -4 -169 13
-397 59 -829 84 -1150 66 -253 -15 -344 -29 -502 -82 -334 -112 -580 -318
-773 -650 -78 -133 -86 -150 -81 -164 4 -9 125 -15 518 -25 667 -17 1207 -36
1215 -44 3 -3 -7 -32 -22 -64 -15 -32 -60 -130 -99 -218 l-72 -160 -124 2
c-68 1 -290 7 -494 13 -810 23 -1129 30 -1136 22 -12 -11 -87 -215 -108 -291
l-19 -69 201 -6 c111 -4 402 -11 647 -16 537 -12 730 -20 730 -32 0 -5 -11
-34 -24 -66 -12 -31 -47 -122 -76 -200 -30 -79 -59 -146 -65 -148 -6 -3 -342
2 -746 9 -403 8 -739 12 -745 10 -36 -13 -42 -395 -9 -517 55 -200 195 -331
425 -399 198 -59 408 -79 852 -78 329 1 538 11 793 41 88 10 164 15 168 10 5
-4 4 -52 -2 -106 -5 -55 -13 -160 -17 -234 -9 -190 -10 -206 -18 -218 -9 -15
-99 -40 -266 -72 -357 -70 -617 -92 -1100 -92 -624 1 -1052 61 -1370 192 -355
147 -538 384 -579 750 -15 133 5 417 40 553 21 86 28 114 34 153 l6 41 -308 7
c-169 4 -309 9 -311 10 -2 3 119 316 155 399 9 21 25 40 37 43 12 3 138 0 281
-5 203 -8 262 -8 271 2 6 7 26 55 44 107 18 52 48 128 67 169 18 41 31 77 28
80 -4 3 -126 9 -272 13 -147 5 -268 10 -271 13 -2 2 17 55 42 117 26 62 66
158 88 213 23 55 47 106 54 114 11 12 48 13 251 3 131 -7 259 -12 284 -12 l47
0 47 93 c26 50 83 153 126 227 134 233 450 594 652 746 359 271 879 474 1382
539 239 31 651 37 985 14z m-5001 -5565 l363 -7 -6 -56 c-9 -77 -56 -323 -66
-341 -5 -10 -21 -15 -46 -14 -107 3 -847 4 -850 1 -2 -2 -10 -32 -19 -68 -9
-35 -30 -115 -47 -177 -17 -62 -29 -114 -26 -117 2 -2 159 -5 349 -5 189 -1
350 -4 356 -8 9 -6 3 -50 -23 -172 -20 -91 -37 -170 -39 -176 -4 -14 -212 -24
-511 -24 l-233 0 -11 -37 c-31 -115 -77 -309 -73 -315 2 -5 215 -8 474 -8 440
0 469 -1 469 -17 0 -21 -23 -145 -46 -252 l-17 -74 -718 5 c-395 2 -721 6
-724 9 -3 3 13 68 36 145 74 252 87 298 107 374 133 506 365 1288 399 1343 4
6 108 7 272 3 146 -3 430 -9 630 -12z m969 -19 c13 -12 -101 -699 -209 -1268
-30 -156 -30 -159 -12 -195 29 -59 41 -62 314 -62 343 0 319 -24 389 380 65
380 124 797 145 1025 11 129 -17 115 230 115 l215 0 0 -40 c0 -177 -154 -1271
-207 -1465 -54 -202 -167 -318 -349 -361 -57 -13 -129 -16 -426 -15 -517 2
-610 17 -707 113 -54 52 -74 109 -79 218 -4 88 3 128 82 525 77 392 133 690
172 930 8 50 16 95 18 100 3 9 415 9 424 0z m4457 -14 c41 -16 76 -40 110 -75
98 -100 109 -217 50 -551 -19 -110 -60 -351 -90 -535 -59 -353 -76 -424 -132
-532 -64 -122 -172 -204 -310 -234 -94 -20 -811 -10 -920 13 -128 27 -221 104
-254 211 -21 72 -21 220 0 362 11 74 42 295 70 490 28 195 53 371 57 390 23
128 85 273 149 347 45 53 127 99 215 123 70 18 104 19 535 17 458 -2 460 -2
520 -26z m-1941 -6 c143 -25 230 -84 280 -190 53 -111 57 -241 16 -520 -51
-347 -121 -481 -295 -561 -70 -32 -74 -36 -64 -55 10 -19 209 -548 209 -556 0
-2 -107 -2 -237 -1 l-238 3 -13 29 c-8 15 -53 139 -101 275 l-88 246 -167 8
c-92 5 -170 6 -173 3 -4 -3 -16 -75 -29 -158 -12 -84 -30 -206 -40 -271 l-18
-119 -217 4 c-120 1 -219 5 -222 8 -5 5 40 325 87 625 63 398 119 818 136
1030 6 72 13 149 16 173 l5 42 533 0 c432 0 550 -3 620 -15z"/>
<path d="M7643 4681 c-71 -33 -89 -91 -132 -417 -11 -84 -36 -255 -56 -380
-40 -263 -40 -265 -19 -305 27 -54 57 -59 325 -59 201 0 247 3 275 16 62 30
72 59 120 367 24 155 60 375 80 489 36 207 36 207 17 245 -29 61 -40 63 -318
63 -224 0 -254 -2 -292 -19z"/>
<path d="M5846 4638 c-11 -73 -66 -498 -66 -512 0 -14 31 -16 258 -16 247 0
260 1 302 23 62 31 77 64 100 218 24 167 25 237 4 268 -33 46 -65 51 -338 51
l-255 0 -5 -32z"/>
</g>
</svg>
